<svg xmlns="http://www.w3.org/2000/svg" version="1.0" viewBox="0 0 1024 1024">
  <!-- White background -->
  <rect width="1024" height="1024" fill="white"/>
  <!-- Your logo in black -->
  <path fill="black" d="M0 512v512h1024V0H0zm565.2-286.8c14.5 6.7 23.8 22.1 23.8 39.5 0 23.3-14.9 43.8-38.5 52.9-3.9 1.5-7.5 1.9-16 1.9-9.8 0-11.6-.3-16.5-2.6-21-10-30-34.2-21.6-57.5 4.8-13.2 16.2-25.7 29.2-32 9.6-4.6 13.4-5.4 24.5-5 7.7.2 10.6.8 15.1 2.8M897.5 281c1.8 2 1.8 2.3-.5 10.3-1.3 4.5-6.8 21.7-12.2 38.2s-9.8 30.2-9.8 30.3c0 .2 12.8.1 28.5-.3 36.7-1 35.4-1.7 28.5 16.4-2.2 5.8-4.4 10.9-4.9 11.4s-14.5 1.2-31.1 1.5l-30.3.7-1.3 4c-.7 2.2-6.7 20.9-13.3 41.5s-14.7 46.5-18 57.5-8 25.8-10.5 33c-6.7 19.5-17.2 56-18.6 64.4-1.4 8.2-.8 15.2 1.5 18.7 2.2 3.5 8.1 4.9 14.4 3.5 13.9-3 29-14.7 47.4-36.9 4.3-5.2 6.6-7.2 8.4-7.2 3.4 0 10.3 4.6 10.3 6.9 0 5.2-31.3 39.8-50 55.2-17.9 14.9-39 26.4-55 30-6.9 1.6-20.8 1.3-28-.6-18.9-4.9-29.8-16.2-31.8-32.8-2-16 2-34.2 15.6-72.3 4.9-13.7 13.8-39.8 19.7-57.9 5.9-18.2 12.9-39.5 15.6-47.3 4-11.7 9.1-27.8 18.5-58.5.5-1.6-.8-1.7-16.9-1.7s-17.5-.2-19.2-2c-1.6-1.7-1.6-2.4-.5-6.5.7-2.5 2.9-6.3 4.9-8.5 3-3.4 5.5-4.7 15.6-8.4 14.1-5.1 27.8-11.8 39-19 19.5-12.7 40.4-32.3 52.9-49.6 3.3-4.6 7.7-10.2 9.7-12.2 3.6-3.8 3.7-3.8 11.6-3.8 6.8 0 8.3.3 9.8 2m-528 70.7c27.4 7.6 42.5 26.9 42.5 53.9 0 10.5-2.7 16.2-12.3 26.1-13.2 13.7-25.1 21.3-33.3 21.3-3.9 0-5.1-.5-7.9-3.3-4-4-5.2-7.8-10.5-33.7-2.1-10.7-4.6-21.5-5.5-23.9-1.9-5.5-5.8-10.7-9.3-12.5-7.2-3.7-19.5-2.4-28.7 2.9-17.9 10.5-42 43.9-60.7 84-14.1 30.3-22.2 57.3-24.9 83.8-1.1 11.4 0 27.1 2.7 36.5 5.7 20.1 21.4 30.2 46.8 30.2 14.5 0 26.2-4 42.4-14.6s26.5-20.1 42.1-38.7c4-4.8 8.1-8.7 9-8.7 2.3 0 10.4 5.6 11.2 7.7 2.8 7.7-37.2 53.8-61.2 70.5-18.1 12.6-38.8 21.3-62 26-15.2 3-45.7 3.3-58.9.5-31.6-6.8-52.6-26.4-60.7-56.5-2.4-8.8-2.7-11.4-2.7-28.2 0-19.8 1.6-31.3 6.8-48.5 8.4-28.2 24.4-58.1 44.9-83.8 10-12.7 31.1-34.3 43.7-44.9 27-22.7 62.2-40.7 90.5-46.2 12.4-2.4 12.9-2.4 31.5-2.1 13.7.2 19 .7 24.5 2.2m180 5c6.5 3.2 12.3 8.8 13.6 13.3 1 3.1.4 5.8-5.6 24.5-3.6 11.6-13.6 41.7-22 67-8.5 25.3-18.6 55.9-22.4 68-25 79.5-40.9 121.7-59.9 159-23.9 47-66.7 84.8-112.6 99.4-40.1 12.8-80.9 4.6-92.3-18.7-2.5-5.1-2.8-6.8-2.8-15.7 0-9.2.3-10.5 3.2-16.8 3.8-8.1 13.1-18.2 20.2-22 7.7-4.2 16-6 22.6-4.8 5.7 1.1 10.7 3.2 13.9 6 3.3 2.9 4.8 7.2 6.2 18.5 2.1 15.8 3.8 21.3 8.4 25.8 3.3 3.4 4.3 3.8 8.6 3.8 17.8 0 37.7-24.3 52-63.5 9-24.7 27.5-80.1 38-114 6.4-20.4 15.3-48.7 19.9-63 35.2-109.3 36-112.5 31.2-119.6-3.8-5.7-7.5-6.9-21.4-6.9-11.2 0-12.3-.2-13.3-2-1.5-2.8.5-9.6 3.3-11.4 6-3.9 56.5-21.2 75.8-26 19.9-5 26.7-5.2 35.4-.9m169.9 111.9c.9.8 1.6 1.9 1.6 2.2 0 1.7-11.2 40.1-12.7 43.5-3 7 .5 6.7-76.7 6.7-69.2 0-69.5 0-70.9-2.1-1.4-1.9-.8-4 5.8-23.7 4-11.9 7.6-22.5 8-23.5 1.9-4.6 1.8-4.6 74.7-4.7 61.1 0 68.8.2 70.2 1.6"/>
</svg>